<?xml version="1.0" encoding="utf-8"?>
<!-- Generator: Adobe Illustrator 21.0.0, SVG Export Plug-In . SVG Version: 6.00 Build 0)  -->
<svg version="1.1" id="Layer_1" xmlns="http://www.w3.org/2000/svg" xmlns:xlink="http://www.w3.org/1999/xlink" x="0px" y="0px"
	 viewBox="0 0 1000 319" style="enable-background:new 0 0 1000 319;" xml:space="preserve">
<style type="text/css">
	.st0{fill-rule:evenodd;clip-rule:evenodd;fill:#005992;}
	.st1{fill-rule:evenodd;clip-rule:evenodd;fill:#C9002B;}
</style>
<g>
	<path class="st0" d="M397.7,46.5l-28,98.2l91.3,0l-9.7,35.1l44.2-0.1l9.9-35l394.4,0.1l27-97.1l-44.5,0l-19.7,70.1l-43.1-0.2
		l19.1-70l-44.3,0.1l-18.8,70.1l-28.5-0.1l10-36.2l-153.6-0.1l2.3-8.1l151.1,0l7.2-26.7L569,46.5l-16.5,61.9l152.7,0.1l-3.6,9.2
		l-188.5-0.1l19.8-71.3L397.7,46.5z M434.5,73.2l47.2,0.1l-12.8,44.5l-47.1-0.1L434.5,73.2z"/>
	<path class="st0" d="M946.1,205.2l-117.2,0l-33.7,106.5l120.4-0.1L946.1,205.2z M862.1,232.4l32-0.2L879,283.8h-31.5L862.1,232.4z"
		/>
	<polygon class="st0" points="687.3,205.2 642.8,205.3 627.1,261.2 609.6,205.5 564.5,205.3 533.9,311.7 578.6,311.7 594.3,255.7 
		612.8,311.5 656.7,311.6 	"/>
	<path class="st0" d="M496.4,205.4l-131-0.1l-8.1,26.7l61.4,0.2c-2.6,4-42.6,29.3-49.8,34.2c-19.8,13.3-37.2,18.1-39.4,45.4
		l137.1-1.2l7.9-26.8h-68.8l83.6-51.7L496.4,205.4z"/>
	<polygon class="st0" points="814,205.4 700.5,205.3 670.1,311.8 782.1,311.7 790.1,284.9 723,284.8 737.3,232.1 806.2,232.3 	"/>
	<polygon class="st0" points="902.9,179.8 947,179.6 984.5,46.5 939.2,46.5 	"/>
	<polygon class="st0" points="552.3,205.2 507.9,205.3 477.4,311.7 521.7,311.6 	"/>
	<polygon class="st0" points="512.1,192.7 556.6,192.7 564.5,165.5 520.2,165.3 	"/>
	<polygon class="st0" points="797.3,37.6 841.9,37.6 848.5,11.4 804.4,11.6 	"/>
	<polygon class="st0" points="846.3,179.7 890.2,179.8 898,152.6 853.9,152.4 	"/>
	<polygon class="st0" points="942.5,37.5 986.6,37.7 994.3,10.2 950.5,10.1 	"/>
	<polygon class="st0" points="795.5,179.7 839.6,179.6 846.9,152.6 803.1,152.5 	"/>
	<polygon class="st1" points="327.8,10.8 53.7,10.8 34.8,101.5 149.5,101.5 5,302.7 	"/>
	<polygon class="st0" points="343.2,19.9 19.4,311.3 295.5,311.3 311.9,220.6 198.7,220.6 	"/>
</g>
</svg>
